<mxfile host="app.diagrams.net" modified="2022-05-26T08:14:58.664Z" agent="5.0 (Macintosh; Intel Mac OS X 10_15_7) AppleWebKit/537.36 (KHTML, like Gecko) Chrome/102.0.5005.61 Safari/537.36" etag="qs0X4KPVAuoeii3rpLGW" version="18.0.6" type="github">
  <diagram id="Mse-EaMbm8qqgBgw2Oga" name="Page-1">
    <mxGraphModel dx="1188" dy="662" grid="0" gridSize="10" guides="1" tooltips="1" connect="1" arrows="1" fold="1" page="1" pageScale="1" pageWidth="1169" pageHeight="827" math="0" shadow="0">
      <root>
        <mxCell id="0" />
        <mxCell id="1" parent="0" />
        <mxCell id="zIQsstq7fWYLSC2sCHk6-12" style="edgeStyle=orthogonalEdgeStyle;rounded=0;orthogonalLoop=1;jettySize=auto;html=1;" edge="1" parent="1" source="zIQsstq7fWYLSC2sCHk6-1" target="zIQsstq7fWYLSC2sCHk6-5">
          <mxGeometry relative="1" as="geometry" />
        </mxCell>
        <mxCell id="zIQsstq7fWYLSC2sCHk6-13" value="pull" style="edgeLabel;html=1;align=center;verticalAlign=middle;resizable=0;points=[];" vertex="1" connectable="0" parent="zIQsstq7fWYLSC2sCHk6-12">
          <mxGeometry x="-0.1106" y="3" relative="1" as="geometry">
            <mxPoint y="1" as="offset" />
          </mxGeometry>
        </mxCell>
        <mxCell id="zIQsstq7fWYLSC2sCHk6-1" value="prometheus" style="shape=cylinder3;whiteSpace=wrap;html=1;boundedLbl=1;backgroundOutline=1;size=15;" vertex="1" parent="1">
          <mxGeometry x="450" y="493" width="110" height="90" as="geometry" />
        </mxCell>
        <mxCell id="zIQsstq7fWYLSC2sCHk6-3" value="wmsv2" style="swimlane;" vertex="1" parent="1">
          <mxGeometry x="80" y="330" width="310" height="360" as="geometry" />
        </mxCell>
        <mxCell id="zIQsstq7fWYLSC2sCHk6-4" value="memory" style="shape=internalStorage;whiteSpace=wrap;html=1;dx=15;dy=15;rounded=1;arcSize=8;strokeWidth=2;" vertex="1" parent="zIQsstq7fWYLSC2sCHk6-3">
          <mxGeometry x="50" y="227" width="90" height="56" as="geometry" />
        </mxCell>
        <mxCell id="zIQsstq7fWYLSC2sCHk6-11" value="pull" style="edgeStyle=orthogonalEdgeStyle;rounded=0;orthogonalLoop=1;jettySize=auto;html=1;" edge="1" parent="zIQsstq7fWYLSC2sCHk6-3" source="zIQsstq7fWYLSC2sCHk6-5" target="zIQsstq7fWYLSC2sCHk6-4">
          <mxGeometry relative="1" as="geometry" />
        </mxCell>
        <mxCell id="zIQsstq7fWYLSC2sCHk6-5" value="${ip}:10000/metrics" style="sketch=0;outlineConnect=0;fontColor=#232F3E;gradientColor=none;fillColor=#232F3D;strokeColor=none;dashed=0;verticalLabelPosition=bottom;verticalAlign=top;align=center;html=1;fontSize=12;fontStyle=0;aspect=fixed;pointerEvents=1;shape=mxgraph.aws4.traditional_server;" vertex="1" parent="zIQsstq7fWYLSC2sCHk6-3">
          <mxGeometry x="210" y="160" width="55" height="95.33" as="geometry" />
        </mxCell>
        <mxCell id="zIQsstq7fWYLSC2sCHk6-9" value="write" style="edgeStyle=orthogonalEdgeStyle;rounded=0;orthogonalLoop=1;jettySize=auto;html=1;exitX=0.5;exitY=1;exitDx=0;exitDy=0;entryX=0.5;entryY=0;entryDx=0;entryDy=0;" edge="1" parent="zIQsstq7fWYLSC2sCHk6-3" source="zIQsstq7fWYLSC2sCHk6-6" target="zIQsstq7fWYLSC2sCHk6-4">
          <mxGeometry relative="1" as="geometry" />
        </mxCell>
        <mxCell id="zIQsstq7fWYLSC2sCHk6-6" value="prometheus client" style="rounded=1;whiteSpace=wrap;html=1;" vertex="1" parent="zIQsstq7fWYLSC2sCHk6-3">
          <mxGeometry x="35" y="140" width="120" height="50" as="geometry" />
        </mxCell>
        <mxCell id="zIQsstq7fWYLSC2sCHk6-8" value="invoke" style="edgeStyle=orthogonalEdgeStyle;rounded=0;orthogonalLoop=1;jettySize=auto;html=1;exitX=0.25;exitY=1;exitDx=0;exitDy=0;entryX=0.625;entryY=0.017;entryDx=0;entryDy=0;entryPerimeter=0;" edge="1" parent="zIQsstq7fWYLSC2sCHk6-3" source="zIQsstq7fWYLSC2sCHk6-7" target="zIQsstq7fWYLSC2sCHk6-6">
          <mxGeometry relative="1" as="geometry" />
        </mxCell>
        <mxCell id="zIQsstq7fWYLSC2sCHk6-7" value="business process" style="shape=process;whiteSpace=wrap;html=1;backgroundOutline=1;" vertex="1" parent="zIQsstq7fWYLSC2sCHk6-3">
          <mxGeometry x="65" y="45" width="180" height="60" as="geometry" />
        </mxCell>
        <mxCell id="zIQsstq7fWYLSC2sCHk6-43" style="edgeStyle=orthogonalEdgeStyle;rounded=0;orthogonalLoop=1;jettySize=auto;html=1;entryX=0.5;entryY=0;entryDx=0;entryDy=0;entryPerimeter=0;" edge="1" parent="1" source="zIQsstq7fWYLSC2sCHk6-16" target="zIQsstq7fWYLSC2sCHk6-1">
          <mxGeometry relative="1" as="geometry" />
        </mxCell>
        <mxCell id="zIQsstq7fWYLSC2sCHk6-44" value="pull" style="edgeLabel;html=1;align=center;verticalAlign=middle;resizable=0;points=[];" vertex="1" connectable="0" parent="zIQsstq7fWYLSC2sCHk6-43">
          <mxGeometry x="-0.2481" relative="1" as="geometry">
            <mxPoint as="offset" />
          </mxGeometry>
        </mxCell>
        <mxCell id="zIQsstq7fWYLSC2sCHk6-16" value="grafana" style="swimlane;fontStyle=1;childLayout=stackLayout;horizontal=1;startSize=30;horizontalStack=0;resizeParent=1;resizeParentMax=0;resizeLast=0;collapsible=1;marginBottom=0;" vertex="1" parent="1">
          <mxGeometry x="415" y="240" width="180" height="120" as="geometry" />
        </mxCell>
        <mxCell id="zIQsstq7fWYLSC2sCHk6-17" value="PromQL : rate(hd_err{}[3m])" style="text;strokeColor=none;fillColor=none;align=left;verticalAlign=middle;spacingLeft=4;spacingRight=4;overflow=hidden;points=[[0,0.5],[1,0.5]];portConstraint=eastwest;rotatable=0;" vertex="1" parent="zIQsstq7fWYLSC2sCHk6-16">
          <mxGeometry y="30" width="180" height="30" as="geometry" />
        </mxCell>
        <mxCell id="zIQsstq7fWYLSC2sCHk6-18" value="PromQL : irate(hd_err{}[1m])" style="text;strokeColor=none;fillColor=none;align=left;verticalAlign=middle;spacingLeft=4;spacingRight=4;overflow=hidden;points=[[0,0.5],[1,0.5]];portConstraint=eastwest;rotatable=0;" vertex="1" parent="zIQsstq7fWYLSC2sCHk6-16">
          <mxGeometry y="60" width="180" height="30" as="geometry" />
        </mxCell>
        <mxCell id="zIQsstq7fWYLSC2sCHk6-19" value="PromQL : delta(hd_err{}[1m])" style="text;strokeColor=none;fillColor=none;align=left;verticalAlign=middle;spacingLeft=4;spacingRight=4;overflow=hidden;points=[[0,0.5],[1,0.5]];portConstraint=eastwest;rotatable=0;" vertex="1" parent="zIQsstq7fWYLSC2sCHk6-16">
          <mxGeometry y="90" width="180" height="30" as="geometry" />
        </mxCell>
        <mxCell id="zIQsstq7fWYLSC2sCHk6-25" value="Alert Rule" style="swimlane;fontStyle=1;childLayout=stackLayout;horizontal=1;startSize=30;horizontalStack=0;resizeParent=1;resizeParentMax=0;resizeLast=0;collapsible=1;marginBottom=0;" vertex="1" parent="1">
          <mxGeometry x="650" y="360" width="180" height="120" as="geometry" />
        </mxCell>
        <mxCell id="zIQsstq7fWYLSC2sCHk6-26" value="rule1 : rate(hd_err{}[3m]) &gt; 10" style="text;strokeColor=none;fillColor=none;align=left;verticalAlign=middle;spacingLeft=4;spacingRight=4;overflow=hidden;points=[[0,0.5],[1,0.5]];portConstraint=eastwest;rotatable=0;" vertex="1" parent="zIQsstq7fWYLSC2sCHk6-25">
          <mxGeometry y="30" width="180" height="30" as="geometry" />
        </mxCell>
        <mxCell id="zIQsstq7fWYLSC2sCHk6-27" value="rule2 : rate(hd_err{}[3m]) &gt; 20" style="text;strokeColor=none;fillColor=none;align=left;verticalAlign=middle;spacingLeft=4;spacingRight=4;overflow=hidden;points=[[0,0.5],[1,0.5]];portConstraint=eastwest;rotatable=0;" vertex="1" parent="zIQsstq7fWYLSC2sCHk6-25">
          <mxGeometry y="60" width="180" height="30" as="geometry" />
        </mxCell>
        <mxCell id="zIQsstq7fWYLSC2sCHk6-28" value="rule3 : rate(hd_err{}[3m]) &gt; 30" style="text;strokeColor=none;fillColor=none;align=left;verticalAlign=middle;spacingLeft=4;spacingRight=4;overflow=hidden;points=[[0,0.5],[1,0.5]];portConstraint=eastwest;rotatable=0;" vertex="1" parent="zIQsstq7fWYLSC2sCHk6-25">
          <mxGeometry y="90" width="180" height="30" as="geometry" />
        </mxCell>
        <mxCell id="zIQsstq7fWYLSC2sCHk6-46" style="edgeStyle=orthogonalEdgeStyle;rounded=0;orthogonalLoop=1;jettySize=auto;html=1;entryX=0.5;entryY=0;entryDx=0;entryDy=0;" edge="1" parent="1" source="zIQsstq7fWYLSC2sCHk6-29" target="zIQsstq7fWYLSC2sCHk6-33">
          <mxGeometry relative="1" as="geometry" />
        </mxCell>
        <mxCell id="zIQsstq7fWYLSC2sCHk6-29" value="Alert Strategy" style="swimlane;fontStyle=1;childLayout=stackLayout;horizontal=1;startSize=30;horizontalStack=0;resizeParent=1;resizeParentMax=0;resizeLast=0;collapsible=1;marginBottom=0;" vertex="1" parent="1">
          <mxGeometry x="870" y="360" width="180" height="120" as="geometry" />
        </mxCell>
        <mxCell id="zIQsstq7fWYLSC2sCHk6-30" value="rule1 : channel1" style="text;strokeColor=none;fillColor=none;align=left;verticalAlign=middle;spacingLeft=4;spacingRight=4;overflow=hidden;points=[[0,0.5],[1,0.5]];portConstraint=eastwest;rotatable=0;" vertex="1" parent="zIQsstq7fWYLSC2sCHk6-29">
          <mxGeometry y="30" width="180" height="30" as="geometry" />
        </mxCell>
        <mxCell id="zIQsstq7fWYLSC2sCHk6-31" value="rule2 : channel2" style="text;strokeColor=none;fillColor=none;align=left;verticalAlign=middle;spacingLeft=4;spacingRight=4;overflow=hidden;points=[[0,0.5],[1,0.5]];portConstraint=eastwest;rotatable=0;" vertex="1" parent="zIQsstq7fWYLSC2sCHk6-29">
          <mxGeometry y="60" width="180" height="30" as="geometry" />
        </mxCell>
        <mxCell id="zIQsstq7fWYLSC2sCHk6-32" value="rule3 : channel3" style="text;strokeColor=none;fillColor=none;align=left;verticalAlign=middle;spacingLeft=4;spacingRight=4;overflow=hidden;points=[[0,0.5],[1,0.5]];portConstraint=eastwest;rotatable=0;" vertex="1" parent="zIQsstq7fWYLSC2sCHk6-29">
          <mxGeometry y="90" width="180" height="30" as="geometry" />
        </mxCell>
        <mxCell id="zIQsstq7fWYLSC2sCHk6-33" value="Alert Channel" style="swimlane;fontStyle=1;childLayout=stackLayout;horizontal=1;startSize=30;horizontalStack=0;resizeParent=1;resizeParentMax=0;resizeLast=0;collapsible=1;marginBottom=0;" vertex="1" parent="1">
          <mxGeometry x="870" y="510" width="180" height="120" as="geometry" />
        </mxCell>
        <mxCell id="zIQsstq7fWYLSC2sCHk6-34" value="channel1 : seatalk" style="text;strokeColor=none;fillColor=none;align=left;verticalAlign=middle;spacingLeft=4;spacingRight=4;overflow=hidden;points=[[0,0.5],[1,0.5]];portConstraint=eastwest;rotatable=0;" vertex="1" parent="zIQsstq7fWYLSC2sCHk6-33">
          <mxGeometry y="30" width="180" height="30" as="geometry" />
        </mxCell>
        <mxCell id="zIQsstq7fWYLSC2sCHk6-35" value="channel2 : email" style="text;strokeColor=none;fillColor=none;align=left;verticalAlign=middle;spacingLeft=4;spacingRight=4;overflow=hidden;points=[[0,0.5],[1,0.5]];portConstraint=eastwest;rotatable=0;" vertex="1" parent="zIQsstq7fWYLSC2sCHk6-33">
          <mxGeometry y="60" width="180" height="30" as="geometry" />
        </mxCell>
        <mxCell id="zIQsstq7fWYLSC2sCHk6-36" value="channel3 :  cellphone" style="text;strokeColor=none;fillColor=none;align=left;verticalAlign=middle;spacingLeft=4;spacingRight=4;overflow=hidden;points=[[0,0.5],[1,0.5]];portConstraint=eastwest;rotatable=0;" vertex="1" parent="zIQsstq7fWYLSC2sCHk6-33">
          <mxGeometry y="90" width="180" height="30" as="geometry" />
        </mxCell>
        <mxCell id="zIQsstq7fWYLSC2sCHk6-41" value="pull" style="edgeStyle=orthogonalEdgeStyle;rounded=0;orthogonalLoop=1;jettySize=auto;html=1;exitX=0;exitY=0.5;exitDx=0;exitDy=0;entryX=1;entryY=0.5;entryDx=0;entryDy=0;entryPerimeter=0;" edge="1" parent="1" source="zIQsstq7fWYLSC2sCHk6-27" target="zIQsstq7fWYLSC2sCHk6-1">
          <mxGeometry relative="1" as="geometry" />
        </mxCell>
        <mxCell id="zIQsstq7fWYLSC2sCHk6-45" style="edgeStyle=orthogonalEdgeStyle;rounded=0;orthogonalLoop=1;jettySize=auto;html=1;exitX=1;exitY=0.5;exitDx=0;exitDy=0;entryX=0;entryY=0.5;entryDx=0;entryDy=0;" edge="1" parent="1" source="zIQsstq7fWYLSC2sCHk6-27" target="zIQsstq7fWYLSC2sCHk6-31">
          <mxGeometry relative="1" as="geometry" />
        </mxCell>
        <mxCell id="zIQsstq7fWYLSC2sCHk6-48" value="user" style="shape=umlActor;verticalLabelPosition=bottom;verticalAlign=top;html=1;outlineConnect=0;" vertex="1" parent="1">
          <mxGeometry x="750" y="555" width="30" height="60" as="geometry" />
        </mxCell>
        <mxCell id="zIQsstq7fWYLSC2sCHk6-49" style="edgeStyle=orthogonalEdgeStyle;rounded=0;orthogonalLoop=1;jettySize=auto;html=1;exitX=0;exitY=0.5;exitDx=0;exitDy=0;" edge="1" parent="1" source="zIQsstq7fWYLSC2sCHk6-35" target="zIQsstq7fWYLSC2sCHk6-48">
          <mxGeometry relative="1" as="geometry" />
        </mxCell>
      </root>
    </mxGraphModel>
  </diagram>
</mxfile>
